/* XPM */
static char *graphic[] = {
/* width height num_colors chars_per_pixel */
"16 16 46 1", 
/* colors */
"  c None",
". c #CD0000",
"X c None",
"o c None",
"O c #CB0000",
"+ c #CB0000",
"@ c #C20000",
"# c None",
"$ c #E50000",
"% c #C70000",
"& c None",
"* c #CA0000",
"= c None",
"- c #CC0000",
"; c #CC0000",
": c None",
"> c #E60000",
", c #E60000",
"< c #E60000",
"1 c #CF0000",
"2 c None",
"3 c #CF0000",
"4 c #CF0000",
"5 c None",
"6 c #CB0000",
"7 c None",
"8 c #C40000",
"9 c #CD0000",
"0 c #C40000",
"q c #C40000",
"w c #CD0000",
"e c #E30000",
"r c #E30000",
"t c None",
"y c #CC0000",
"u c None",
"i c None",
"p c None",
"a c #CE0000",
"s c #CE0000",
"d c #E80000",
"f c None",
"g c #D10000",
"h c #C10000",
"j c #C10000",
"k c #E40000",
/* pixels */
"                ",
"                ",
"   2u      Xi   ",
"  o36q    @64p  ",
"  #*.*j  8*y.:  ",
"   r*.*-;6.yd   ",
"    >6yyyy6k    ",
"     9yyy*a     ",
"     wyyy*s     ",
"    ,*yyyy6e    ",
"   <*.*O+*.6$   ",
"  t6.6h  j*y.5  ",
"  =160    %yg=  ",
"   f&      7=   ",
"                ",
"                "
};
