/* XPM */
static char *graphic[] = {
/* width height num_colors chars_per_pixel */
"24 24 196 2", 
/* colors */
"   c None",
".  c #F1A800",
"X  c #FCC828",
"o  c None",
"O  c #E09805",
"+  c #DCF0C4",
"@  c #EEAD1E",
"#  c #E89B00",
"$  c #E59600",
"%  c #F4AF00",
"&  c #DD982D",
"*  c #CBE7AF",
"=  c #A9D431",
"-  c #93D33D",
";  c #C0E58B",
":  c #DCF0C5",
">  c #E89700",
",  c #EEA501",
"<  c #91D71D",
"1  c #EDA815",
"2  c #76BA2C",
"3  c #6EBC2C",
"4  c #E89900",
"5  c #93CB66",
"6  c #A3D732",
"7  c None",
"8  c #F4AD00",
"9  c #E39731",
"0  c #FDBC00",
"q  c #ECB06D",
"w  c #EFA500",
"e  c #E6A362",
"r  c #FDC827",
"t  c #8CD31F",
"y  c None",
"u  c #E19A4B",
"i  c #9BDB33",
"p  c #E08E00",
"a  c #DE9A44",
"s  c #EDB66E",
"d  c #EAAA29",
"f  c None",
"g  c #EFA700",
"h  c None",
"j  c #F8B600",
"k  c #ACD531",
"l  c None",
"z  c #9ED65A",
"x  c #9DDC36",
"c  c #D2EDAA",
"v  c #EA9F00",
"b  c #D38B39",
"n  c #FDC828",
"m  c None",
"M  c #89A924",
"N  c None",
"B  c None",
"V  c #D6991E",
"C  c #FDC627",
"Z  c #EFA500",
"A  c #94D733",
"S  c #FBBD06",
"D  c #C5E5A4",
"F  c #D7912A",
"G  c None",
"H  c #DE8900",
"J  c #EAA118",
"K  c #EFAB06",
"L  c #AEC022",
"P  c #F6B100",
"I  c #E19000",
"U  c None",
"Y  c #CF882B",
"T  c None",
"R  c #EA9F00",
"E  c None",
"W  c #ECAF68",
"Q  c #F6B300",
"!  c #E79A18",
"~  c #E69911",
"^  c #E5F4CE",
"/  c #CEEC9F",
"(  c #DF8D00",
")  c #D39259",
"_  c #D0891C",
"`  c #91CB60",
"'  c None",
"]  c #68B232",
"[  c #EA9D00",
"{  c #E49F22",
"}  c None",
"|  c #DC9141",
" . c #E7AA56",
".. c #F9B600",
"X. c #F6B100",
"o. c None",
"O. c #E5A060",
"+. c #EAAC31",
"@. c #E59500",
"#. c #E4A13C",
"$. c #D58E13",
"%. c #C88F08",
"&. c #EAAA67",
"*. c #DC8800",
"=. c #FAC52E",
"-. c #FAB800",
";. c #E5A666",
":. c #DFA207",
">. c None",
",. c #EFB86F",
"<. c None",
"1. c #E2A506",
"2. c #E9B16B",
"3. c #68B533",
"4. c #77C22A",
"5. c #E59500",
"6. c #ECAD1E",
"7. c #D58D09",
"8. c #F1A900",
"9. c #6BB332",
"0. c #C0863A",
"q. c #E19701",
"w. c None",
"e. c #F2AB00",
"r. c None",
"t. c #DA8500",
"y. c None",
"u. c #E69F05",
"i. c #E39400",
"p. c #78C32A",
"a. c #EBA709",
"s. c #FCC529",
"d. c #F1B109",
"f. c #DC8700",
"g. c #E6A753",
"h. c #FBC52E",
"j. c #F0AE01",
"k. c #F8B300",
"l. c #78C12A",
"z. c #DD8800",
"x. c #B5CE30",
"c. c #9BDE3A",
"v. c #E39200",
"b. c #E8A43B",
"n. c #E4A768",
"m. c #ECA100",
"M. c #E9A72D",
"N. c #E29C5A",
"B. c #F8B500",
"V. c None",
"C. c #94B01E",
"Z. c #E18F00",
"A. c #8CCB26",
"S. c #E5A44C",
"D. c None",
"F. c #F0F8E6",
"G. c None",
"H. c #8AD11F",
"J. c #99D452",
"K. c #D99C29",
"L. c #E6A02D",
"P. c #E6F4D3",
"I. c #E99E04",
"U. c #FBB800",
"Y. c #F2F9E9",
"T. c None",
"R. c #70BA2F",
"E. c #E89D00",
"W. c None",
"Q. c #FBC013",
"!. c #90D71D",
"~. c #98D643",
"^. c #DC9442",
"/. c #D08832",
"(. c #DE8A00",
"). c #E79900",
"_. c #E3992D",
"`. c #F6B200",
"'. c #89CF29",
"]. c #BFC52B",
"[. c None",
"{. c None",
"}. c #EFB00D",
"|. c #ECAA18",
" X c None",
".X c None",
"XX c #F8C032",
"oX c #80C926",
"OX c #E29300",
"+X c #EEB770",
"@X c #E09400",
"#X c #EEA700",
"$X c None",
"%X c #C89009",
"&X c #DC8500",
"*X c #84C724",
/* pixels */
"                y ,.s +X}                       ",
"              E q U   $Xo 2.                    ",
"              W o.        n.7                   ",
"            D.;.          T &.                  ",
"            B G.            e <.                ",
"            O.[.            ) f                 ",
"            N.>.            ' h                 ",
"    Q.C X X XXs.X n X n X X =.h.X X r {.        ",
"    S 0 0 0 0.}.0 0 0 0 0 0 K.V 0 0 0 l         ",
"    -.U...j  .d...U...U.....+.6.....U.y.        ",
"    k.B.Q `.g.j.Q B.Q B.Q Q d @ Q Q B.N         ",
"    P X.% % S.K % X.% X.% % M.|.% % X..X        ",
"    e.8 8 8 #.1 8 8 8 8 8 8 b.a.8 8 8 r.        ",
"    . 8.g g { L.g 8.g 8.g g a #Xg g 8.m         ",
"    w Z Z Z u.u , Z Z Z Z J & Z Z Z Z  X        ",
"    v m.R R m.F _.m.R m.I.^.O m.R R m.w.        ",
"    E.[ # # [ q.b 9 ~ ! | $.# 1.].= k x.G       ",
"    > 4 4 4 4 4 @X_ /.Y 7.).:.6 !.x i < c.W.    ",
"    @.$ i.i.$ i.i.$ OX5.i.i.L t H.c / H.H.A     ",
"    Z.v.I I v.I I v.I v.I I A.~.; P.^ ; - '.    ",
"    ( p p p p p p p p p p p *Xz : Y.F.+ J.oX    ",
"    H (.*.*.(.*.*.(.*.(.*.*.C.p.l.* D l.l.4.    ",
"    &Xz.t.t.z.t.t.z.t.z.t.t.%.2 R.5 ` R.3 T.    ",
"    f.z.z.z.z.z.z.z.z.z.z.z.z.%XM 9.] 3.V.      "
};
